<?xml version="1.0" standalone="no"?>
<!DOCTYPE svg PUBLIC "-//W3C//DTD SVG 20010904//EN"
 "http://www.w3.org/TR/2001/REC-SVG-20010904/DTD/svg10.dtd">
<svg version="1.0" xmlns="http://www.w3.org/2000/svg"
 width="1280.000000pt" height="1199.000000pt" viewBox="0 0 1280.000000 1199.000000"
 preserveAspectRatio="xMidYMid meet">
<g transform="translate(0.000000,1199.000000) scale(0.100000,-0.100000)"
fill="#000000" stroke="none">
<path d="M563 11965 c-288 -73 -476 -278 -542 -592 -21 -97 -21 -98 -21 -3983
0 -3885 0 -3886 21 -3980 66 -303 241 -504 509 -588 51 -15 226 -17 2365 -22
l2310 -5 0 -520 c0 -564 -2 -588 -56 -723 -80 -202 -237 -362 -439 -448 -140
-60 -179 -64 -687 -64 -382 0 -469 -3 -518 -16 -211 -54 -328 -251 -286 -476
25 -130 79 -266 147 -370 53 -79 100 -122 168 -154 l51 -24 2812 0 c2782 0
2812 0 2858 20 67 29 111 66 160 134 80 113 135 244 161 384 19 102 14 174
-17 258 -31 81 -130 181 -214 215 -60 24 -62 24 -575 30 -579 6 -562 4 -725
84 -195 96 -338 258 -410 463 -42 121 -46 178 -43 707 l3 500 2310 5 2310 5
70 23 c105 35 189 86 271 164 119 113 183 233 223 418 21 94 21 95 21 3980 0
3788 0 3889 -19 3976 -21 99 -60 208 -93 263 -105 175 -258 287 -457 337 l-96
24 -5740 -1 -5740 -1 -92 -23z m11435 -777 c17 -17 17 -7579 0 -7596 -17 -17
-11179 -17 -11196 0 -9 9 -12 868 -12 3803 0 2086 3 3795 7 3798 3 4 2522 7
5598 7 4335 0 5594 -3 5603 -12z"/>
</g>
</svg>
